<?xml version="1.0" encoding="utf-8"?>
<!-- Generator: Adobe Illustrator 17.1.0, SVG Export Plug-In . SVG Version: 6.00 Build 0)  -->
<!DOCTYPE svg PUBLIC "-//W3C//DTD SVG 1.1//EN" "http://www.w3.org/Graphics/SVG/1.1/DTD/svg11.dtd">
<svg version="1.1" id="header_1_" xmlns="http://www.w3.org/2000/svg" xmlns:xlink="http://www.w3.org/1999/xlink" x="0px" y="0px"
	 viewBox="0 0 152 188" enable-background="new 0 0 152 188" xml:space="preserve">
<g id="logo_3_">
	<g id="shape">
		<g>
			<path fill-rule="evenodd" clip-rule="evenodd" fill="#F21B23" d="M141,188h1V0h-1V188z M144,0v188h3c2.76,0,5-2.24,5-5V0H144z
				 M0,183c0,2.76,2.24,5,5,5h134V0H0V183z"/>
		</g>
	</g>
	<g id="events_1_">
		<g>
			<path fill="#FFFFFF" d="M19.59,163v-24.95h16.85v4.72H25.21v4.9h9.97v4.61h-9.97v6.01h12.06V163H19.59z"/>
			<path fill="#FFFFFF" d="M43.86,163c-0.99-2.1-1.97-4.27-2.94-6.52c-0.97-2.25-1.88-4.48-2.75-6.69c-0.87-2.21-1.67-4.32-2.4-6.33
				s-1.36-3.82-1.89-5.4h6.19c0.47,1.44,0.99,3,1.56,4.67c0.57,1.67,1.15,3.33,1.75,4.98c0.59,1.65,1.16,3.24,1.7,4.75
				c0.54,1.52,1.06,2.82,1.56,3.93c0.47-1.09,0.98-2.4,1.54-3.92c0.56-1.51,1.13-3.1,1.72-4.75c0.59-1.65,1.17-3.31,1.75-4.98
				c0.57-1.67,1.09-3.22,1.56-4.68h5.98c-0.56,1.59-1.2,3.39-1.93,5.41c-0.73,2.01-1.52,4.12-2.39,6.33
				c-0.86,2.21-1.77,4.44-2.73,6.7c-0.96,2.26-1.93,4.43-2.92,6.51H43.86z"/>
			<path fill="#FFFFFF" d="M56.99,163v-24.95h16.85v4.72H62.61v4.9h9.97v4.61h-9.97v6.01h12.06V163H56.99z"/>
			<path fill="#FFFFFF" d="M90.15,163c-1.61-2.86-3.35-5.68-5.22-8.46s-3.86-5.41-5.98-7.88V163h-5.54v-24.95h4.57
				c0.79,0.79,1.67,1.76,2.63,2.92c0.96,1.15,1.94,2.38,2.93,3.69c1,1.31,1.99,2.66,2.97,4.07c0.98,1.4,1.91,2.75,2.77,4.05v-14.72
				h5.58V163H90.15z"/>
			<path fill="#FFFFFF" d="M113.73,138.05v4.79h-7.52V163h-5.62v-20.16h-7.52v-4.79H113.73z"/>
			<path fill="#FFFFFF" d="M118.73,158.72c0.79,0,1.45-0.07,1.96-0.2c0.52-0.13,0.93-0.31,1.24-0.54c0.31-0.23,0.53-0.5,0.65-0.81
				c0.12-0.31,0.18-0.66,0.18-1.04c0-0.82-0.38-1.49-1.15-2.03c-0.77-0.54-2.09-1.12-3.96-1.75c-0.82-0.29-1.63-0.62-2.45-0.99
				c-0.82-0.37-1.55-0.84-2.2-1.4c-0.65-0.56-1.18-1.25-1.58-2.05c-0.41-0.8-0.61-1.78-0.61-2.93c0-1.15,0.22-2.19,0.65-3.11
				c0.43-0.92,1.04-1.71,1.84-2.36s1.75-1.15,2.88-1.49c1.13-0.35,2.4-0.52,3.82-0.52c1.68,0,3.13,0.18,4.36,0.54
				c1.22,0.36,2.23,0.76,3.02,1.19l-1.62,4.43c-0.7-0.36-1.47-0.68-2.32-0.95c-0.85-0.28-1.88-0.41-3.08-0.41
				c-1.34,0-2.31,0.19-2.9,0.56c-0.59,0.37-0.88,0.94-0.88,1.71c0,0.46,0.11,0.84,0.32,1.15c0.22,0.31,0.52,0.59,0.92,0.85
				c0.4,0.25,0.85,0.48,1.37,0.68c0.52,0.2,1.09,0.41,1.71,0.63c1.3,0.48,2.42,0.95,3.38,1.42c0.96,0.47,1.76,1.01,2.39,1.64
				c0.63,0.62,1.11,1.36,1.42,2.2c0.31,0.84,0.47,1.86,0.47,3.06c0,2.33-0.82,4.13-2.45,5.42s-4.09,1.93-7.38,1.93
				c-1.1,0-2.1-0.07-2.99-0.2s-1.67-0.29-2.36-0.49c-0.68-0.19-1.27-0.4-1.76-0.61s-0.91-0.42-1.24-0.61l1.58-4.46
				c0.74,0.41,1.66,0.77,2.75,1.1C115.81,158.55,117.15,158.72,118.73,158.72z"/>
		</g>
	</g>
</g>
</svg>
